<svg width="2200" height="760" viewBox="0 0 2200 760" fill="none" xmlns="http://www.w3.org/2000/svg">
  <defs>
    <linearGradient id="dm_bg_lockup" x1="152" y1="120" x2="864" y2="896" gradientUnits="userSpaceOnUse">
      <stop stop-color="#23C993"/>
      <stop offset="0.55" stop-color="#29A8D8"/>
      <stop offset="1" stop-color="#4466F2"/>
    </linearGradient>
    <radialGradient id="dm_shine_lockup" cx="0" cy="0" r="1" gradientUnits="userSpaceOnUse" gradientTransform="translate(790 234) rotate(132.57) scale(198)">
      <stop stop-color="white" stop-opacity="0.3"/>
      <stop offset="1" stop-color="white" stop-opacity="0"/>
    </radialGradient>
    <clipPath id="dm_clip_lockup">
      <rect x="72" y="72" width="880" height="880" rx="236"/>
    </clipPath>
  </defs>
  <rect width="2200" height="760" rx="48" fill="#F4F7FB"/>
  <g transform="translate(90 90) scale(0.56640625)">
    <g clip-path="url(#dm_clip_lockup)">
      <rect x="72" y="72" width="880" height="880" rx="236" fill="url(#dm_bg_lockup)"/>
      <circle cx="790" cy="234" r="198" fill="url(#dm_shine_lockup)"/>
    </g>
    <rect x="88" y="88" width="848" height="848" rx="220" stroke="white" stroke-opacity="0.18" stroke-width="16"/>
    <path d="M320 242H495C697 242 836 351 836 512C836 673 697 782 495 782H320V242ZM438 350V674H489C615 674 712 613 712 512C712 411 615 350 489 350H438Z" fill="white"/>
    <rect x="556" y="606" width="170" height="38" rx="19" fill="white" fill-opacity="0.94"/>
    <rect x="516" y="670" width="210" height="38" rx="19" fill="white" fill-opacity="0.76"/>
  </g>
  <text x="742" y="326" fill="#0B1738" font-size="220" font-weight="700" font-family="Outfit, Work Sans, Arial, sans-serif">DriveMind</text>
  <text x="750" y="408" fill="#5E7593" font-size="48" letter-spacing="5.5" font-family="Geist Mono, IBM Plex Mono, Consolas, monospace">THE RELIABILITY LAYER FOR AI AGENTS</text>
</svg>
