<svg width="1024" height="1024" viewBox="0 0 1024 1024" fill="none" xmlns="http://www.w3.org/2000/svg">
  <defs>
    <linearGradient id="dm_bg" x1="152" y1="120" x2="864" y2="896" gradientUnits="userSpaceOnUse">
      <stop stop-color="#23C993"/>
      <stop offset="0.55" stop-color="#29A8D8"/>
      <stop offset="1" stop-color="#4466F2"/>
    </linearGradient>
    <radialGradient id="dm_shine" cx="0" cy="0" r="1" gradientUnits="userSpaceOnUse" gradientTransform="translate(790 234) rotate(132.57) scale(198)">
      <stop stop-color="white" stop-opacity="0.3"/>
      <stop offset="1" stop-color="white" stop-opacity="0"/>
    </radialGradient>
    <clipPath id="dm_clip">
      <rect x="72" y="72" width="880" height="880" rx="236"/>
    </clipPath>
  </defs>
  <g clip-path="url(#dm_clip)">
    <rect x="72" y="72" width="880" height="880" rx="236" fill="url(#dm_bg)"/>
    <circle cx="790" cy="234" r="198" fill="url(#dm_shine)"/>
  </g>
  <rect x="88" y="88" width="848" height="848" rx="220" stroke="white" stroke-opacity="0.18" stroke-width="16"/>
  <path d="M320 242H495C697 242 836 351 836 512C836 673 697 782 495 782H320V242ZM438 350V674H489C615 674 712 613 712 512C712 411 615 350 489 350H438Z" fill="white"/>
  <rect x="556" y="606" width="170" height="38" rx="19" fill="white" fill-opacity="0.94"/>
  <rect x="516" y="670" width="210" height="38" rx="19" fill="white" fill-opacity="0.76"/>
</svg>
