<svg width="2200" height="760" viewBox="0 0 2200 760" fill="none" xmlns="http://www.w3.org/2000/svg">
  <rect width="2200" height="760" rx="40" fill="#F7F9FC"/>
  <g transform="translate(120 120) scale(0.5078125)">
    <rect x="64" y="64" width="896" height="896" rx="168" fill="#F7F9FC"/>
    <path d="M346 246H228L154 320V704L228 778H346" stroke="#071525" stroke-width="64" stroke-linejoin="round"/>
    <path d="M678 246H796L870 320V704L796 778H678" stroke="#071525" stroke-width="64" stroke-linejoin="round"/>
    <path d="M512 218V806" stroke="#19D39A" stroke-width="44" stroke-linecap="round" stroke-dasharray="2 74"/>
    <path d="M212 420H360" stroke="#607084" stroke-width="40"/>
    <path d="M212 512H360" stroke="#607084" stroke-width="40"/>
    <path d="M212 604H360" stroke="#607084" stroke-width="40"/>
    <path d="M664 420H812" stroke="#607084" stroke-width="40"/>
    <path d="M664 512H812" stroke="#607084" stroke-width="40"/>
    <path d="M664 604H812" stroke="#607084" stroke-width="40"/>
    <path d="M512 418L604 512L512 606" stroke="#19D39A" stroke-width="58" stroke-linecap="round" stroke-linejoin="round"/>
    <path d="M512 512H604" stroke="#19D39A" stroke-width="58" stroke-linecap="round"/>
  </g>
  <text x="720" y="350" fill="#071525" font-size="212" font-weight="760" font-family="Inter, Avenir Next, Segoe UI, Arial, sans-serif">DriveMind</text>
  <text x="728" y="444" fill="#607084" font-size="48" letter-spacing="12" font-family="IBM Plex Mono, Geist Mono, Consolas, monospace">BOUNDED EXECUTION FOR AGENTS</text>
</svg>
